<svg width="509" height="116" viewBox="0 0 509 116" fill="none" xmlns="http://www.w3.org/2000/svg">
<rect x="3" y="2" width="504" height="112" rx="13" fill="black" stroke="white" stroke-width="4"/>
<rect x="2" y="2" width="257" height="112" rx="13" fill="#FF0000" stroke="white" stroke-width="4"/>
<path d="M52.2344 29.0703C54.9688 29.0703 57.3385 29.3047 59.3438 29.7734C61.375 30.2161 63.0677 30.8411 64.4219 31.6484C67.0781 33.237 68.4062 35.3724 68.4062 38.0547C68.4062 39.7995 67.7292 41.1667 66.375 42.1562C65.0469 43.1458 63.4062 43.6406 61.4531 43.6406C61.4531 41.8177 61.1276 40.125 60.4766 38.5625C59.8255 37 58.8099 35.737 57.4297 34.7734C56.0495 33.8099 54.2656 33.3281 52.0781 33.3281C49.0573 33.3281 46.4922 33.888 44.3828 35.0078C42.2734 36.1016 40.5547 37.7031 39.2266 39.8125C37.8984 41.9479 36.9349 44.5781 36.3359 47.7031C35.737 50.8021 35.4375 54.3568 35.4375 58.3672C35.4375 61.9349 35.75 65.2031 36.375 68.1719C37 71.1406 37.9896 73.6797 39.3438 75.7891C40.6979 77.9245 42.4167 79.5781 44.5 80.75C46.6094 81.9219 49.1354 82.5078 52.0781 82.5078C54.0312 82.5078 55.75 82.3255 57.2344 81.9609C58.7448 81.5703 60.0729 81.0625 61.2188 80.4375C62.3646 79.8125 63.3672 79.0964 64.2266 78.2891C65.112 77.4557 65.8932 76.5964 66.5703 75.7109C67.013 75.9974 67.3776 76.388 67.6641 76.8828C67.9505 77.3776 68.0938 78.0286 68.0938 78.8359C68.0938 79.8516 67.7422 80.8932 67.0391 81.9609C66.362 83.0026 65.3203 83.9531 63.9141 84.8125C62.5078 85.6719 60.724 86.388 58.5625 86.9609C56.401 87.5078 53.8359 87.7812 50.8672 87.7812C46.8828 87.7812 43.3802 87.0781 40.3594 85.6719C37.3385 84.2656 34.8125 82.2734 32.7812 79.6953C30.724 77.1172 29.1745 74.0182 28.1328 70.3984C27.0911 66.7786 26.5703 62.7682 26.5703 58.3672C26.5703 54.0443 27.1172 50.0859 28.2109 46.4922C29.3307 42.8984 30.9583 39.8125 33.0938 37.2344C35.2552 34.6562 37.9245 32.651 41.1016 31.2188C44.3047 29.7865 48.0156 29.0703 52.2344 29.0703ZM104.5 59.8906L115.477 77.2344C116.831 79.3698 118.146 80.9714 119.422 82.0391C120.698 83.1068 122.182 83.6406 123.875 83.6406H124.109V87H122.977C120.477 87 118.419 86.9089 116.805 86.7266C115.216 86.5443 113.862 86.1927 112.742 85.6719C111.622 85.151 110.659 84.4219 109.852 83.4844C109.07 82.5469 108.224 81.3229 107.312 79.8125L96.4922 61.8047H89.8516V78.2891C89.8516 80.5026 90.4505 81.9479 91.6484 82.625C92.8464 83.3021 94.4349 83.6406 96.4141 83.6406H97.4688V87H74.1875V83.6406H75.2031C77.1823 83.6406 78.7708 83.3021 79.9688 82.625C81.1667 81.9479 81.7656 80.5026 81.7656 78.2891V38.6797C81.7656 36.4401 81.1536 34.9818 79.9297 34.3047C78.7057 33.6016 77.1302 33.25 75.2031 33.25H74.1875V29.8906H95.7109C109.409 29.8906 116.258 35.0339 116.258 45.3203C116.258 47.4557 115.906 49.3307 115.203 50.9453C114.526 52.5339 113.628 53.9141 112.508 55.0859C111.388 56.2578 110.125 57.2344 108.719 58.0156C107.312 58.7969 105.906 59.4219 104.5 59.8906ZM95.2812 33.7188H89.8516V58.0547H95.4766C100.008 58.0547 103.211 57.013 105.086 54.9297C106.023 53.888 106.688 52.5859 107.078 51.0234C107.495 49.4609 107.703 47.638 107.703 45.5547C107.703 41.2578 106.766 38.2109 104.891 36.4141C102.99 34.6172 99.7865 33.7188 95.2812 33.7188ZM161.648 59.0703H142.352V83.0156H157.781C160.177 83.0156 161.974 82.4036 163.172 81.1797C164.37 79.9557 165.112 78.3802 165.398 76.4531L165.945 73.0156H170.125L169.578 87H126.688V83.6406H127.703C129.682 83.6406 131.271 83.3021 132.469 82.625C133.667 81.9479 134.266 80.5026 134.266 78.2891V38.9922C134.266 36.6484 133.667 35.112 132.469 34.3828C131.297 33.6276 129.708 33.25 127.703 33.25H126.688V29.8906H167L167.391 43.875H163.25L162.859 40.4375C162.625 38.5104 161.961 36.9349 160.867 35.7109C159.773 34.487 158.081 33.875 155.789 33.875H142.352V55.1641H161.648V59.0703ZM227.078 58.3672C227.078 67.2995 224.904 74.2526 220.555 79.2266C218.393 81.7266 215.685 83.6536 212.43 85.0078C209.174 86.3359 205.372 87 201.023 87H176.531V83.6406H177.547C179.552 83.6406 181.141 83.276 182.312 82.5469C183.51 81.7917 184.109 80.2422 184.109 77.8984V38.6797C184.109 36.4401 183.497 34.9818 182.273 34.3047C181.049 33.6016 179.474 33.25 177.547 33.25H176.531V29.8906H201.023C209.279 29.8906 215.685 32.3646 220.242 37.3125C224.799 42.2604 227.078 49.2786 227.078 58.3672ZM192.195 33.875V82.9375H199.148C205.477 82.9375 210.242 80.8151 213.445 76.5703C216.622 72.3776 218.211 66.3099 218.211 58.3672C218.211 50.4245 216.622 44.3568 213.445 40.1641C210.294 35.9714 205.555 33.875 199.227 33.875H192.195Z" fill="white"/>
<path d="M299.836 33.875H286.711V57H306.008V60.9062H286.711V77.8984C286.711 80.2682 287.31 81.8177 288.508 82.5469C289.706 83.276 291.294 83.6406 293.273 83.6406H295.93V87H271.047V83.6406H272.062C274.042 83.6406 275.63 83.3021 276.828 82.625C278.026 81.9479 278.625 80.5026 278.625 78.2891V38.6797C278.625 36.4401 278.013 34.9818 276.789 34.3047C275.565 33.6016 273.99 33.25 272.062 33.25H271.047V29.8906H311.359L311.75 43.875H307.609L307.219 40.4375C307.01 38.5104 306.32 36.9349 305.148 35.7109C303.977 34.487 302.206 33.875 299.836 33.875ZM358.788 87L351.908 69.32H329.268L322.468 87H315.188L337.508 29.64H343.988L366.228 87H358.788ZM343.348 45.64C343.188 45.2133 342.921 44.44 342.548 43.32C342.174 42.2 341.801 41.0533 341.428 39.88C341.108 38.6533 340.841 37.72 340.628 37.08C340.361 38.1467 340.068 39.24 339.748 40.36C339.481 41.4267 339.188 42.4133 338.868 43.32C338.601 44.2267 338.361 45 338.148 45.64L331.668 62.92H349.748L343.348 45.64ZM352.468 12.28C351.988 13.0267 351.294 13.9333 350.388 15C349.481 16.0667 348.468 17.1867 347.348 18.36C346.281 19.48 345.188 20.5733 344.068 21.64C343.001 22.6533 341.988 23.5333 341.028 24.28H336.388V23.32C337.188 22.3067 338.041 21.1067 338.948 19.72C339.908 18.3333 340.841 16.92 341.748 15.48C342.654 13.9867 343.401 12.6533 343.988 11.48H352.468V12.28ZM396.516 29.0703C399.25 29.0703 401.62 29.3047 403.625 29.7734C405.656 30.2161 407.349 30.8411 408.703 31.6484C411.359 33.237 412.688 35.3724 412.688 38.0547C412.688 39.7995 412.01 41.1667 410.656 42.1562C409.328 43.1458 407.688 43.6406 405.734 43.6406C405.734 41.8177 405.409 40.125 404.758 38.5625C404.107 37 403.091 35.737 401.711 34.7734C400.331 33.8099 398.547 33.3281 396.359 33.3281C393.339 33.3281 390.773 33.888 388.664 35.0078C386.555 36.1016 384.836 37.7031 383.508 39.8125C382.18 41.9479 381.216 44.5781 380.617 47.7031C380.018 50.8021 379.719 54.3568 379.719 58.3672C379.719 61.9349 380.031 65.2031 380.656 68.1719C381.281 71.1406 382.271 73.6797 383.625 75.7891C384.979 77.9245 386.698 79.5781 388.781 80.75C390.891 81.9219 393.417 82.5078 396.359 82.5078C398.312 82.5078 400.031 82.3255 401.516 81.9609C403.026 81.5703 404.354 81.0625 405.5 80.4375C406.646 79.8125 407.648 79.0964 408.508 78.2891C409.393 77.4557 410.174 76.5964 410.852 75.7109C411.294 75.9974 411.659 76.388 411.945 76.8828C412.232 77.3776 412.375 78.0286 412.375 78.8359C412.375 79.8516 412.023 80.8932 411.32 81.9609C410.643 83.0026 409.602 83.9531 408.195 84.8125C406.789 85.6719 405.005 86.388 402.844 86.9609C400.682 87.5078 398.117 87.7812 395.148 87.7812C391.164 87.7812 387.661 87.0781 384.641 85.6719C381.62 84.2656 379.094 82.2734 377.062 79.6953C375.005 77.1172 373.456 74.0182 372.414 70.3984C371.372 66.7786 370.852 62.7682 370.852 58.3672C370.852 54.0443 371.398 50.0859 372.492 46.4922C373.612 42.8984 375.24 39.8125 377.375 37.2344C379.536 34.6562 382.206 32.651 385.383 31.2188C388.586 29.7865 392.297 29.0703 396.516 29.0703ZM441.75 83.6406V87H418.469V83.6406H419.484C421.49 83.6406 423.078 83.276 424.25 82.5469C425.448 81.7917 426.047 80.2422 426.047 77.8984V38.9922C426.047 36.6484 425.448 35.112 424.25 34.3828C423.078 33.6276 421.49 33.25 419.484 33.25H418.469V29.8906H441.75V33.25H440.695C438.716 33.25 437.128 33.6146 435.93 34.3438C434.732 35.0729 434.133 36.6224 434.133 38.9922V77.8984C434.133 80.2682 434.732 81.8177 435.93 82.5469C437.128 83.276 438.716 83.6406 440.695 83.6406H441.75ZM491.281 69.8125L490.734 87H447.844V83.6406H448.859C450.865 83.6406 452.453 83.276 453.625 82.5469C454.823 81.7917 455.422 80.2422 455.422 77.8984V38.9922C455.422 36.6484 454.823 35.112 453.625 34.3828C452.453 33.6276 450.865 33.25 448.859 33.25H447.844V29.8906H471.125V33.25H470.07C468.143 33.25 466.568 33.6016 465.344 34.3047C464.12 34.9818 463.508 36.4401 463.508 38.6797V83.0156H479.289C481.555 83.0156 483.234 82.2865 484.328 80.8281C485.422 79.3698 486.086 77.6901 486.32 75.7891L487.102 69.8125H491.281Z" fill="white"/>
</svg>
