<svg width="216" height="216" viewBox="0 0 216 216" fill="none" xmlns="http://www.w3.org/2000/svg">
<rect x="2" y="2" width="212" height="212" rx="13" fill="black" stroke="white" stroke-width="4"/>
<rect x="3" y="2" width="104" height="212" rx="13" fill="#FF0000" stroke="white" stroke-width="4"/>
<path d="M65.6895 54.3818C70.8164 54.3818 75.2598 54.8213 79.0195 55.7002C82.8281 56.5303 86.002 57.7021 88.541 59.2158C93.5215 62.1943 96.0117 66.1982 96.0117 71.2275C96.0117 74.499 94.7422 77.0625 92.2031 78.918C89.7129 80.7734 86.6367 81.7012 82.9746 81.7012C82.9746 78.2832 82.3643 75.1094 81.1436 72.1797C79.9229 69.25 78.0186 66.8818 75.4307 65.0752C72.8428 63.2686 69.498 62.3652 65.3965 62.3652C59.7324 62.3652 54.9229 63.415 50.9678 65.5146C47.0127 67.5654 43.79 70.5684 41.2998 74.5234C38.8096 78.5273 37.0029 83.459 35.8799 89.3184C34.7568 95.1289 34.1953 101.794 34.1953 109.313C34.1953 116.003 34.7812 122.131 35.9531 127.697C37.125 133.264 38.9805 138.024 41.5195 141.979C44.0586 145.983 47.2812 149.084 51.1875 151.281C55.1426 153.479 59.8789 154.577 65.3965 154.577C69.0586 154.577 72.2812 154.235 75.0645 153.552C77.8965 152.819 80.3867 151.867 82.5352 150.695C84.6836 149.523 86.5635 148.181 88.1748 146.667C89.835 145.104 91.2998 143.493 92.5693 141.833C93.3994 142.37 94.083 143.103 94.6201 144.03C95.1572 144.958 95.4258 146.179 95.4258 147.692C95.4258 149.597 94.7666 151.55 93.4482 153.552C92.1787 155.505 90.2256 157.287 87.5889 158.898C84.9521 160.51 81.6074 161.853 77.5547 162.927C73.502 163.952 68.6924 164.465 63.126 164.465C55.6553 164.465 49.0879 163.146 43.4238 160.51C37.7598 157.873 33.0234 154.138 29.2148 149.304C25.3574 144.47 22.4521 138.659 20.499 131.872C18.5459 125.085 17.5693 117.565 17.5693 109.313C17.5693 101.208 18.5947 93.7861 20.6455 87.0479C22.7451 80.3096 25.7969 74.5234 29.8008 69.6895C33.8535 64.8555 38.8584 61.0957 44.8154 58.4102C50.8213 55.7246 57.7793 54.3818 65.6895 54.3818Z" fill="white"/>
<path d="M178.692 64.3906H154.083V107.75H190.265V115.074H154.083V146.935C154.083 151.378 155.206 154.283 157.452 155.65C159.698 157.018 162.677 157.701 166.388 157.701H171.368V164H124.713V157.701H126.617C130.328 157.701 133.307 157.066 135.553 155.797C137.799 154.527 138.922 151.817 138.922 147.667V73.3994C138.922 69.2002 137.774 66.4658 135.479 65.1963C133.185 63.8779 130.23 63.2188 126.617 63.2188H124.713V56.9199H200.299L201.031 83.1406H193.268L192.535 76.6953C192.145 73.082 190.851 70.1279 188.653 67.833C186.456 65.5381 183.136 64.3906 178.692 64.3906Z" fill="white"/>
</svg>
