<svg width="328" height="416" viewBox="0 0 328 416" fill="none" xmlns="http://www.w3.org/2000/svg">
<g filter="url(#filter0_d_2_2)">
<path d="M153 336.85C153 352.25 148.233 364.717 138.7 374.25C129.167 383.417 116.7 388 101.3 388H61.7C46.3 388 33.8333 383.417 24.3 374.25C14.7667 364.717 10 352.25 10 336.85V54.15C10 38.75 14.7667 26.4666 24.3 17.3C33.8333 7.76664 46.3 2.99997 61.7 2.99997H101.3C116.7 2.99997 129.167 7.76664 138.7 17.3C148.233 26.4666 153 38.75 153 54.15V142.15H100.75V56.9C100.75 55.0666 99.8333 54.15 98 54.15H65C63.1667 54.15 62.25 55.0666 62.25 56.9V334.1C62.25 335.933 63.1667 336.85 65 336.85H98C99.8333 336.85 100.75 335.933 100.75 334.1V220.25H79.3L83.7 169.1H153V336.85ZM317.893 220.8V339.05C317.893 354.45 313.126 366.917 303.593 376.45C294.059 385.617 281.593 390.2 266.193 390.2H226.593C211.193 390.2 198.726 385.617 189.193 376.45C179.659 366.917 174.893 354.45 174.893 339.05V51.95C174.893 36.55 179.659 24.2666 189.193 15.1C198.726 5.56664 211.193 0.799969 226.593 0.799969H266.193C281.593 0.799969 294.059 5.56664 303.593 15.1C313.126 24.2666 317.893 36.55 317.893 51.95V175.15L265.643 169.65V54.7C265.643 52.8667 264.726 51.95 262.893 51.95H229.893C228.059 51.95 227.143 52.8667 227.143 54.7V336.3C227.143 338.133 228.059 339.05 229.893 339.05H262.893C264.726 339.05 265.643 338.133 265.643 336.3V220.8H317.893Z" fill="black"/>
</g>
<defs>
<filter id="filter0_d_2_2" x="0" y="0.799957" width="327.893" height="414.4" filterUnits="userSpaceOnUse" color-interpolation-filters="sRGB">
<feFlood flood-opacity="0" result="BackgroundImageFix"/>
<feColorMatrix in="SourceAlpha" type="matrix" values="0 0 0 0 0 0 0 0 0 0 0 0 0 0 0 0 0 0 127 0" result="hardAlpha"/>
<feOffset dy="15"/>
<feGaussianBlur stdDeviation="5"/>
<feComposite in2="hardAlpha" operator="out"/>
<feColorMatrix type="matrix" values="0 0 0 0 0 0 0 0 0 0 0 0 0 0 0 0 0 0 0.25 0"/>
<feBlend mode="normal" in2="BackgroundImageFix" result="effect1_dropShadow_2_2"/>
<feBlend mode="normal" in="SourceGraphic" in2="effect1_dropShadow_2_2" result="shape"/>
</filter>
</defs>
</svg>
