<svg width="1316" height="448" viewBox="0 0 1316 448" fill="none" xmlns="http://www.w3.org/2000/svg">
<g filter="url(#filter0_d_0_1)">
<path d="M153 336.85C153 352.25 148.233 364.717 138.7 374.25C129.167 383.417 116.7 388 101.3 388H61.7C46.3 388 33.8333 383.417 24.3 374.25C14.7667 364.717 10 352.25 10 336.85V54.15C10 38.75 14.7667 26.4666 24.3 17.3C33.8333 7.76664 46.3 2.99997 61.7 2.99997H101.3C116.7 2.99997 129.167 7.76664 138.7 17.3C148.233 26.4666 153 38.75 153 54.15V142.15H100.75V56.9C100.75 55.0666 99.8333 54.15 98 54.15H65C63.1667 54.15 62.25 55.0666 62.25 56.9V334.1C62.25 335.933 63.1667 336.85 65 336.85H98C99.8333 336.85 100.75 335.933 100.75 334.1V220.25H79.3L83.7 169.1H153V336.85ZM317.893 220.8V339.05C317.893 354.45 313.126 366.917 303.593 376.45C294.059 385.617 281.593 390.2 266.193 390.2H226.593C211.193 390.2 198.726 385.617 189.193 376.45C179.659 366.917 174.893 354.45 174.893 339.05V51.95C174.893 36.55 179.659 24.2666 189.193 15.1C198.726 5.56664 211.193 0.799969 226.593 0.799969H266.193C281.593 0.799969 294.059 5.56664 303.593 15.1C313.126 24.2666 317.893 36.55 317.893 51.95V175.15L265.643 169.65V54.7C265.643 52.8667 264.726 51.95 262.893 51.95H229.893C228.059 51.95 227.143 52.8667 227.143 54.7V336.3C227.143 338.133 228.059 339.05 229.893 339.05H262.893C264.726 339.05 265.643 338.133 265.643 336.3V220.8H317.893Z" fill="black"/>
</g>
<g filter="url(#filter1_d_0_1)">
<path d="M426.5 170C426.5 159.667 424.833 152.833 421.5 149.5C418.167 146.167 411.167 144.5 400.5 144.5H391.5C381.167 144.5 374.167 146.167 370.5 149.5C367.167 152.833 365.5 159.667 365.5 170V320C365.5 330.333 367.167 337.167 370.5 340.5C374.167 343.833 381.167 345.5 391.5 345.5H400.5C411.167 345.5 418.167 343.833 421.5 340.5C424.833 337.167 426.5 330.333 426.5 320V170ZM339 320V170C339 135.333 356.5 118 391.5 118H400.5C435.5 118 453 135.333 453 170V320C453 354.667 435.5 372 400.5 372H391.5C356.5 372 339 354.667 339 320ZM474.406 370V46.5H465.406L469.406 20H500.906V132.5L512.406 120H526.906C542.24 120 554.406 124.333 563.406 133C572.74 141.667 577.406 152.833 577.406 166.5V323.5C577.406 340.833 572.24 353 561.906 360C551.906 366.667 540.073 370 526.406 370H525.406C521.073 370 516.74 369.5 512.406 368.5C508.406 367.167 504.573 365.667 500.906 364V370H474.406ZM535.906 343.5C541.906 343.5 545.906 342.5 547.906 340.5C549.906 338.5 550.906 334.5 550.906 328.5V161.5C550.906 155.5 549.906 151.5 547.906 149.5C545.906 147.5 541.906 146.5 535.906 146.5H500.906V343.5H535.906ZM625.301 120V139L636.801 120H662.301V149.5H625.301V370H598.801V146.5H589.801L593.801 120H625.301ZM725.438 370C710.104 370 697.771 365.667 688.438 357C679.438 348 674.938 336.833 674.938 323.5V166.5C674.938 151.167 679.271 139.667 687.938 132C696.938 124 709.604 120 725.938 120H726.938C731.271 120 735.438 120.5 739.438 121.5C743.771 122.5 747.771 124 751.438 126V120H777.938V343.5H783.938L787.938 370H751.438V357.5L739.938 370H725.438ZM716.438 146.5C710.438 146.5 706.438 147.5 704.438 149.5C702.438 151.5 701.438 155.5 701.438 161.5V328.5C701.438 334.5 702.438 338.5 704.438 340.5C706.438 342.5 710.438 343.5 716.438 343.5H751.438V146.5H716.438ZM809.367 370V146.5H800.367L804.367 120H835.867V131.5L846.367 120H860.867C876.201 120 888.367 124.333 897.367 133C906.701 141.667 911.367 152.833 911.367 166.5V343.5H920.367L916.367 370H884.867V161.5C884.867 155.5 883.867 151.5 881.867 149.5C879.867 147.5 875.867 146.5 869.867 146.5H835.867V370H809.367ZM935.191 320V170C935.191 135.333 952.691 118 987.691 118H993.191C1028.19 118 1045.69 135.333 1045.69 170V229.5L1019.19 226.5V170C1019.19 159.667 1017.52 152.833 1014.19 149.5C1010.86 146.167 1003.86 144.5 993.191 144.5H987.691C977.358 144.5 970.358 146.167 966.691 149.5C963.358 152.833 961.691 159.667 961.691 170V320C961.691 330.333 963.358 337.167 966.691 340.5C970.358 343.833 977.358 345.5 987.691 345.5H993.191C1003.86 345.5 1010.86 343.833 1014.19 340.5C1017.52 337.167 1019.19 330.333 1019.19 320V265.5H1045.69V320C1045.69 354.667 1028.19 372 993.191 372H987.691C952.691 372 935.191 354.667 935.191 320ZM986.191 369.5V382.5H999.191C1003.86 382.5 1008.52 383.667 1013.19 386C1018.19 388.333 1020.69 391.333 1020.69 395V410.5C1020.69 414.167 1018.19 417.167 1013.19 419.5C1008.52 421.833 1003.86 423 999.191 423H969.191V401H986.691V410.5H1003.19V395H984.691C974.358 395 969.191 390.5 969.191 381.5V369.5H986.191ZM1116.06 370C1100.73 370 1088.4 365.667 1079.06 357C1070.06 348 1065.56 336.833 1065.56 323.5V166.5C1065.56 151.167 1069.9 139.667 1078.56 132C1087.56 124 1100.23 120 1116.56 120H1117.56C1121.9 120 1126.06 120.5 1130.06 121.5C1134.4 122.5 1138.4 124 1142.06 126V120H1168.56V343.5H1174.56L1178.56 370H1142.06V357.5L1130.56 370H1116.06ZM1107.06 146.5C1101.06 146.5 1097.06 147.5 1095.06 149.5C1093.06 151.5 1092.06 155.5 1092.06 161.5V328.5C1092.06 334.5 1093.06 338.5 1095.06 340.5C1097.06 342.5 1101.06 343.5 1107.06 343.5H1142.06V146.5H1107.06ZM1191.05 280L1217.55 283.5V320C1217.55 337 1226.22 345.5 1243.55 345.5H1252.55C1269.88 345.5 1278.55 338.833 1278.55 325.5L1278.05 277L1203.05 241.5C1195.05 237.833 1191.05 231.167 1191.05 221.5V164.5C1191.05 133.5 1208.55 118 1243.55 118H1257.05C1289.05 119.667 1305.05 137 1305.05 170V211L1278.55 208.5V170C1278.55 153 1269.88 144.5 1252.55 144.5H1243.55C1235.22 144.5 1228.72 146.167 1224.05 149.5C1219.72 152.5 1217.55 156.5 1217.55 161.5L1218.05 220.5L1293.05 256C1301.05 259.333 1305.05 266 1305.05 276V325.5C1305.05 356.5 1287.55 372 1252.55 372H1239.05C1207.05 370.333 1191.05 353 1191.05 320V280Z" fill="black"/>
</g>
<defs>
<filter id="filter0_d_0_1" x="0" y="0.799957" width="327.893" height="414.4" filterUnits="userSpaceOnUse" color-interpolation-filters="sRGB">
<feFlood flood-opacity="0" result="BackgroundImageFix"/>
<feColorMatrix in="SourceAlpha" type="matrix" values="0 0 0 0 0 0 0 0 0 0 0 0 0 0 0 0 0 0 127 0" result="hardAlpha"/>
<feOffset dy="15"/>
<feGaussianBlur stdDeviation="5"/>
<feComposite in2="hardAlpha" operator="out"/>
<feColorMatrix type="matrix" values="0 0 0 0 0 0 0 0 0 0 0 0 0 0 0 0 0 0 0.25 0"/>
<feBlend mode="normal" in2="BackgroundImageFix" result="effect1_dropShadow_0_1"/>
<feBlend mode="normal" in="SourceGraphic" in2="effect1_dropShadow_0_1" result="shape"/>
</filter>
<filter id="filter1_d_0_1" x="329" y="20" width="986.051" height="428" filterUnits="userSpaceOnUse" color-interpolation-filters="sRGB">
<feFlood flood-opacity="0" result="BackgroundImageFix"/>
<feColorMatrix in="SourceAlpha" type="matrix" values="0 0 0 0 0 0 0 0 0 0 0 0 0 0 0 0 0 0 127 0" result="hardAlpha"/>
<feOffset dy="15"/>
<feGaussianBlur stdDeviation="5"/>
<feComposite in2="hardAlpha" operator="out"/>
<feColorMatrix type="matrix" values="0 0 0 0 0 0 0 0 0 0 0 0 0 0 0 0 0 0 0.25 0"/>
<feBlend mode="normal" in2="BackgroundImageFix" result="effect1_dropShadow_0_1"/>
<feBlend mode="normal" in="SourceGraphic" in2="effect1_dropShadow_0_1" result="shape"/>
</filter>
</defs>
</svg>
